<svg width="16" height="16" viewBox="0 0 16 16" xmlns="http://www.w3.org/2000/svg">
<circle cx="8" cy="8" r="7.5" fill="#121214" stroke="white"/>
<path d="M8 4C6.3458 4 5 5.26169 5 6.8125H6.2C6.2 5.88213 7.0076 5.125 8 5.125C8.9924 5.125 9.8 5.88213 9.8 6.8125C9.8 7.41381 9.5276 7.63656 8.9114 8.08094C8.6822 8.24631 8.4236 8.43306 8.1758 8.66481C7.3886 9.40225 7.397 10.1296 7.4 10.1875V11.3125H8.6V10.1824C8.6 10.1689 8.6138 9.84437 9.0242 9.46019C9.2162 9.28019 9.4334 9.12381 9.6428 8.9725C10.2788 8.5135 11 7.99375 11 6.8125C11 5.26169 9.6542 4 8 4ZM7.4 11.875H8.6V13H7.4V11.875Z" />
</svg>
