<svg width="19" height="19" viewBox="0 0 19 19"  xmlns="http://www.w3.org/2000/svg">
<path fill-rule="evenodd" clip-rule="evenodd" d="M9.38204 0C4.3811 0 0.330566 4.15299 0.330566 9.28042C0.330566 13.387 2.92155 16.8556 6.51951 18.0852C6.97208 18.1664 7.1418 17.888 7.1418 17.6444C7.1418 17.424 7.13049 16.6932 7.13049 15.9159C4.8563 16.3451 4.26796 15.3475 4.08693 14.8255C3.9851 14.5587 3.54384 13.735 3.15915 13.5146C2.84235 13.3406 2.38978 12.9114 3.14784 12.8998C3.86064 12.8882 4.36979 13.5726 4.5395 13.851C5.35413 15.2547 6.65528 14.8603 7.17574 14.6167C7.25494 14.0134 7.49254 13.6074 7.75277 13.3754C5.73882 13.1434 3.63435 12.343 3.63435 8.7932C3.63435 7.78395 3.9851 6.94871 4.56213 6.29908C4.47162 6.06707 4.15481 5.11583 4.65264 3.83977C4.65264 3.83977 5.41071 3.59616 7.1418 4.79102C7.86592 4.58221 8.63529 4.4778 9.40467 4.4778C10.174 4.4778 10.9434 4.58221 11.6675 4.79102C13.3986 3.58456 14.1567 3.83977 14.1567 3.83977C14.6545 5.11583 14.3377 6.06707 14.2472 6.29908C14.8242 6.94871 15.175 7.77235 15.175 8.7932C15.175 12.3546 13.0592 13.1434 11.0452 13.3754C11.3734 13.6654 11.6562 14.2222 11.6562 15.0923C11.6562 16.3335 11.6449 17.3312 11.6449 17.6444C11.6449 17.888 11.8146 18.178 12.2672 18.0852C14.064 17.4632 15.6254 16.2792 16.7316 14.6997C17.8377 13.1202 18.433 11.2249 18.4335 9.28042C18.4335 4.15299 14.383 0 9.38204 0Z" />
</svg>
