<svg width="351" height="92" viewBox="0 0 351 92" fill="none" xmlns="http://www.w3.org/2000/svg">
<g clip-path="url(#clip0_101_18)">
<path d="M351 63.0827C350.741 63.2519 350.352 63.3626 350.242 63.6035C344.618 74.8661 336.455 79.4362 323.854 78.0495C317.621 77.3595 311.888 75.2437 307.566 70.3675C303.893 66.2401 304.016 63.4212 307.903 59.5737C310.203 57.2951 312.562 55.0687 314.803 52.7315C315.918 51.5597 316.481 51.6573 317.395 52.9984C320.453 57.4058 324.865 58.3823 330.177 57.6792C329.491 56.2145 328.234 55.8694 327.152 55.3356C323.984 53.7406 320.673 52.406 317.589 50.6483C308.972 45.7396 305.927 39.0211 307.508 28.8067C308.571 21.8473 314.991 15.5845 323.154 13.7617C330.417 12.1342 337.356 13 343.452 17.5181C346.465 19.7511 348.959 22.4072 348.7 26.8016C348.622 28.1492 348.052 28.6765 347.404 29.4056C344.67 32.4654 341.91 35.4991 339.157 38.5199C340.543 39.5224 342.493 40.8375 344.34 42.2827C347.761 44.9519 349.387 48.7929 350.981 52.699L351 63.0827ZM311.544 41.521C311.432 41.7642 311.405 42.038 311.466 42.2988C311.527 42.5597 311.673 42.7924 311.881 42.9598C314.946 45.668 318.127 48.1679 321.962 49.7499C326.054 51.3442 329.918 53.474 333.455 56.0843C333.741 58.0764 332.348 58.7534 330.864 59.2091C327.145 60.3614 323.737 59.4044 320.219 57.9722C318.315 57.191 317.57 53.8903 315.153 55.0556C313.313 55.941 312.011 57.9527 310.475 59.4695C309.893 60.1083 309.272 60.7105 308.616 61.2728C306.122 63.2259 307.074 65.0878 308.564 67.0343C309.063 67.6854 310.281 67.6203 310.216 68.7791C310.268 69.072 310.216 69.4757 310.385 69.6319C318.723 77.392 336.047 77.1641 344.21 69.1697C344.994 68.408 346.27 67.783 345.772 66.2727C350.955 59.7039 350.261 50.3488 344.081 44.3725C341.304 41.8019 338.074 39.7751 334.557 38.3962C331.881 37.2764 329.147 36.2673 326.556 34.9783C325.532 34.464 323.64 34.1385 324.502 32.0943C327.741 29.933 331.097 30.291 334.596 31.58C336.222 32.1854 336.954 34.8742 338.937 33.9172C340.498 33.162 341.619 31.4954 342.934 30.2324C343.945 29.2689 344.994 28.3445 345.94 27.3289C346.484 26.743 347.314 26.1245 346.549 25.135C347.003 23.9241 346.258 23.0647 345.675 22.1793C344.765 20.8385 343.627 19.6703 342.312 18.729C334.835 13.2279 322.539 13.5859 315.14 19.5232C308.558 24.7899 307.34 32.192 311.544 41.521ZM335.917 37.1202C334.499 33.5851 331.771 33.5981 328.357 34.0604L335.917 37.1202Z" fill="#221529"/>
<path d="M0 13.6901C11.6618 13.7291 23.2847 13.8333 34.927 13.7617C37.3241 13.7617 38.3802 14.1392 38.2052 16.88C37.985 20.9871 37.985 25.1032 38.2052 29.2103C38.3024 31.4367 37.4926 31.8794 35.4583 31.8729C32.6011 31.8729 28.6815 30.5253 27.159 32.4653C25.7272 34.2882 26.699 38.0445 26.6795 40.9286C26.6795 46.1367 26.7897 51.3448 26.6148 56.5139C26.5435 58.851 27.0294 59.9057 29.5885 59.6258C31.72 59.3914 33.9034 59.6843 36.0673 59.5476C37.836 59.4305 38.2377 60.1466 38.1988 61.7936C38.0951 66.3508 38.1081 70.9079 38.1988 75.465C38.2312 77.0339 37.7193 77.5027 36.1774 77.4896C24.3213 77.392 12.4587 77.3724 0.596035 77.3269C0.596035 75.2957 0.673776 73.258 0.550679 71.2334C0.330401 67.6593 1.19856 64.0266 0.0259008 60.4981V59.1961C3.40134 60.101 6.83509 59.3914 10.2364 59.5997C11.7525 59.6909 11.6034 58.6037 11.6034 57.6467C11.6034 49.7368 11.5451 41.8335 11.6423 33.9237C11.6423 32.1203 10.9945 31.7492 9.40069 31.8143C6.27793 31.938 3.14866 31.8925 0.0259008 31.912L0 13.6901ZM13.3139 28.8066C13.3139 38.6305 13.2426 48.4478 13.3851 58.2716C13.424 60.752 12.666 61.5267 10.2818 61.2858C8.15028 61.084 5.9799 61.2859 3.80303 61.2207C2.39066 61.1622 1.91124 61.7025 1.94363 63.0892C2.02785 66.3442 2.00193 69.5668 2.02137 72.8088C1.59377 74.3973 2.52024 74.6122 3.77064 74.6122C14.046 74.6122 24.3277 74.6121 34.6031 74.6512C36.0737 74.6512 36.605 74.215 36.2422 72.7828C36.2422 69.6514 36.2422 66.5265 36.3653 63.4016C36.4366 61.6895 35.7757 61.1296 34.1107 61.2142C31.8626 61.3314 29.5756 61.1296 27.3404 61.2728C25.4486 61.3965 24.9886 60.6218 25.008 58.851C25.1246 48.8254 25.1441 38.7932 25.1959 28.7676C28.2798 28.7676 31.3637 28.696 34.4476 28.7285C35.698 28.7285 36.6244 28.6048 36.158 26.9968C36.2228 23.9826 36.2098 20.9684 36.3718 17.9607C36.4754 16.0793 35.7239 15.5976 33.9487 15.6171C26.861 15.7017 19.7667 15.565 12.6789 15.6887C9.18041 15.7473 4.41205 14.0742 2.52025 16.3397C0.628449 18.6052 1.94364 23.3446 2.0797 26.9968C1.62618 28.5853 2.52673 28.7155 3.77713 28.709C6.97116 28.7025 10.1457 28.7741 13.3139 28.8066Z" fill="#1C1823"/>
<path d="M0 60.5177C1.17914 64.0462 0.3045 67.6789 0.524778 71.2529C0.647875 73.2776 0.563656 75.3153 0.570134 77.3464L0.291552 77.4506L0 77.4181V60.5177Z" fill="#573379"/>
<path d="M274.039 29.6856C276.851 25.161 279.74 20.682 282.422 16.0793C283.427 14.3606 284.58 13.7813 286.543 13.8203C293.209 13.944 299.883 13.8659 306.543 13.8659C306.925 15.1289 306.024 15.8189 305.545 16.5611C300.187 25.187 294.874 33.839 289.348 42.3608C288.052 44.3529 288.247 45.6159 289.497 47.4908C296.125 57.2105 302.617 67.0213 309.128 76.7475C308.48 77.9193 307.515 77.4441 306.75 77.4506C300.388 77.4962 294.026 77.3855 287.664 77.5287C285.668 77.5743 284.567 76.8777 283.537 75.2567C280.471 70.31 277.091 65.5673 273.417 61.058C273.417 65.7714 273.371 70.4847 273.417 75.1981C273.417 76.6954 273.32 77.5743 271.408 77.5222C266.556 77.3855 261.69 77.4246 256.844 77.5222C255.341 77.5222 254.784 77.1446 254.784 75.5692C254.836 55.6481 254.836 35.7292 254.784 15.8124C254.784 14.4713 255.121 13.8594 256.591 13.8594C261.554 13.931 266.517 13.944 271.493 13.8594C273.177 13.8594 273.436 14.595 273.436 16.0142C273.378 20.5062 273.436 25.0047 273.436 29.5033L274.039 29.6856ZM271.719 72.887C271.771 67.7635 271.797 62.64 271.907 57.5165C271.907 56.2145 271.512 54.7562 272.633 53.6104C273.093 54.32 273.572 55.0166 274 55.7457C277.46 61.5528 281.774 66.813 285.014 72.7633C285.012 72.9793 285.055 73.1934 285.141 73.3916C285.226 73.5899 285.352 73.768 285.51 73.9145C285.668 74.0611 285.855 74.1728 286.058 74.2425C286.262 74.3122 286.478 74.3383 286.692 74.3192C292.406 74.3496 298.118 74.3496 303.828 74.3192C305.849 74.3192 304.256 73.2971 304.21 72.7242C298.496 64.0852 292.853 55.3942 287.022 46.8333C285.519 44.6264 285.48 43.0119 286.97 40.7528C291.836 33.3573 296.416 25.7795 301.224 18.3319C302.597 16.203 302.137 15.5911 299.747 15.6366C295.756 15.7213 291.765 15.7994 287.787 15.6366C285.558 15.526 284.314 16.2877 283.18 18.2016C279.753 24.0087 276.106 29.6921 272.542 35.421C271.938 29.7157 271.722 23.9756 271.894 18.2407C271.933 16.2877 271.389 15.565 269.361 15.6366C265.273 15.8124 261.178 15.7538 257.084 15.7929C256.436 16.0663 256.507 16.6392 256.507 17.16C256.537 35.7357 256.576 54.307 256.624 72.874C256.378 74.0783 257.032 74.3583 258.062 74.3518C262.144 74.3518 266.225 74.3518 270.307 74.3518C271.298 74.3713 271.966 74.0849 271.719 72.887Z" fill="#221728"/>
<path d="M41.9435 45.7982C41.9435 36.1567 42.0148 26.5216 41.8917 16.8866C41.8917 14.608 42.2351 13.7096 44.8266 13.7422C57.4472 13.8984 70.0937 13.8594 82.6949 13.7422C84.8329 13.7422 85.4225 14.3346 85.3901 16.4569C85.267 24.4709 85.28 32.4849 85.3901 40.4989C85.3901 42.452 84.9625 43.1811 82.9023 43.103C79.4556 42.9337 75.9959 42.9467 72.5362 43.103C70.5926 43.1876 70.0095 42.452 70.2687 40.6877C70.2784 40.5794 70.2784 40.4705 70.2687 40.3622C70.0678 37.5954 71.4478 33.201 69.7439 32.3938C66.3102 30.7467 61.9694 31.912 57.9784 31.8599C56.8252 31.8599 57.039 32.8169 57.0325 33.5265C57.0325 41.6447 57.0649 49.802 57.0325 57.8876C57.0325 59.4109 57.6804 59.6778 58.9762 59.6453C61.9953 59.5802 65.0208 59.5216 68.0464 59.6453C69.9901 59.7429 70.4306 58.8771 70.3529 57.1584C70.2557 54.8864 70.4177 52.6013 70.3076 50.3358C70.2233 48.6887 70.6833 48.0377 72.4455 48.1028C76.1125 48.2265 79.786 48.2069 83.4594 48.1028C85.0726 48.0572 85.4419 48.7017 85.4031 50.1926C85.3512 58.5256 85.3188 66.8651 85.4031 75.2046C85.4031 77.1576 84.6709 77.4831 82.9541 77.4766C70.1132 77.4159 57.2744 77.4159 44.4378 77.4766C42.4942 77.4766 41.8852 77.0469 41.9111 74.9897C42.0277 65.2896 41.9435 55.5439 41.9435 45.7982ZM83.4076 38.3831C83.4076 31.567 83.4076 24.7573 83.4918 17.9412C83.4918 16.4048 83.278 15.6041 81.4251 15.6171C69.4653 15.6866 57.5033 15.6866 45.5392 15.6171C43.9649 15.6171 43.5178 16.1769 43.5243 17.6938C43.5977 36.0785 43.6453 54.4632 43.6669 72.8479C43.3559 74.4038 44.4249 74.3583 45.4291 74.3583H81.7102C82.7532 74.3583 83.7445 74.3582 83.4011 72.8349C83.4011 68.1866 83.4853 63.5449 83.4918 58.8966C83.4918 49.4764 83.4918 49.4764 74.1624 49.9777C74.0546 49.9875 73.9462 49.9875 73.8384 49.9777C72.4649 49.841 71.8948 50.4334 71.9596 51.8396C72.0309 54.32 71.9272 56.8134 71.9596 59.2937C71.9596 60.5958 71.6357 61.2468 70.165 61.2468C65.8566 61.1817 61.5482 61.1752 57.2463 61.2468C55.6785 61.2468 55.1667 60.6414 55.1796 59.144C55.2638 49.4244 55.2962 39.7047 55.3481 29.985L71.8171 29.9395L72.0179 38.3636C71.7264 39.5289 72.0179 40.2776 73.372 40.3166C76.2745 40.3166 79.2029 40.3166 82.073 40.3166C83.4918 40.3362 83.6538 39.4898 83.427 38.3831H83.4076Z" fill="#1C1823"/>
<path d="M189.906 36.8858C189.906 42.5105 189.653 48.1483 189.951 53.7601C190.709 67.8611 179.151 79.5729 163.705 78.9804C148.804 78.4075 139.151 68.2908 139.144 53.3109C139.144 41.2996 139.268 29.2884 139.06 17.2772C139.002 14.263 139.941 13.6705 142.669 13.8138C146.971 14.0416 151.292 13.9895 155.626 13.8138C157.68 13.7356 158.134 14.4648 158.121 16.4178C158.03 27.8887 158.069 39.3596 158.082 50.8305C158.082 55.4397 160.369 58.0568 164.405 58.1544C168.441 58.2521 171.124 55.4918 171.13 50.8565C171.13 39.4963 171.195 28.1296 171.091 16.7694C171.091 14.5624 171.558 13.7356 173.909 13.8398C178.322 14.0351 182.753 14.0351 187.172 13.8398C189.523 13.7356 190.022 14.582 189.977 16.7759C189.821 23.4618 189.906 30.1738 189.906 36.8858ZM144.431 65.5305C151.914 79.039 176.028 79.7031 184.217 66.6372C184.422 66.3934 184.563 66.1016 184.627 65.7887C184.69 65.4758 184.674 65.1519 184.58 64.8469C186.627 62.0996 188.247 59.1961 187.819 55.5764C188.513 55.01 188.344 54.2028 188.344 53.4736C188.344 41.4949 188.344 29.5162 188.344 17.5376C188.344 16.9256 188.519 16.2355 187.8 15.8124C183.816 15.7668 179.818 15.8775 175.847 15.6106C173.255 15.4348 172.853 16.4113 172.879 18.7289C172.996 29.4446 172.879 40.1604 172.944 50.8761C172.944 54.4306 171.687 57.2039 168.448 58.8705C162.617 61.8522 156.333 57.9852 156.268 51.2537C156.158 40.4273 156.184 29.6074 156.268 18.781C156.268 16.509 155.886 15.4153 153.288 15.6106C150.052 15.8197 146.805 15.8197 143.569 15.6106C141.295 15.4869 140.615 16.2616 140.647 18.5206C140.758 27.5046 140.9 36.4952 140.647 45.4727C140.466 52.5297 141.03 59.2807 144.431 65.5565V65.5305Z" fill="#1F1620"/>
<path d="M214.46 52.8226C214.46 60.2247 214.382 67.5421 214.505 74.853C214.544 76.9428 214.02 77.6199 211.869 77.5417C207.236 77.366 202.597 77.4311 197.959 77.5417C196.333 77.5417 195.71 77.1641 195.71 75.3934C195.767 55.4853 195.767 35.5751 195.71 15.6626C195.71 14.0677 196.028 13.4427 197.803 13.3386C201.315 13.1302 204.036 13.9505 206.653 16.6457C213.942 24.1454 221.554 31.3066 229.057 38.5784C230.255 37.9274 229.743 36.9379 229.75 36.1827C229.795 29.4707 229.815 22.7653 229.75 16.0533C229.75 14.4257 230.126 13.7617 231.894 13.8073C236.741 13.9179 241.613 13.9114 246.446 13.8073C248.182 13.7682 248.623 14.3606 248.616 16.0337C248.569 36.0546 248.569 56.0734 248.616 76.09C248.616 77.6198 248.189 78.043 246.634 78.1602C243.135 78.4141 240.401 77.6394 237.784 74.9051C231.123 67.9783 224.094 61.4095 217.181 54.7236C216.468 54.0075 215.957 52.9594 214.46 52.8226ZM230.961 65.2766L231.609 65.9276L232.257 66.5786L232.905 67.2296C233.119 67.4445 233.333 67.6658 233.553 67.8806L234.201 68.5317C234.415 68.753 234.635 68.9678 234.849 69.1827L235.497 69.8337L236.144 70.4847L236.792 71.1357C237.764 72.8674 239.3 74.1044 240.744 75.3738C241.174 75.7224 241.669 75.9821 242.199 76.1381C242.729 76.294 243.284 76.3432 243.833 76.2827C244.383 76.2222 244.914 76.0532 245.398 75.7855C245.882 75.5178 246.308 75.1567 246.653 74.7228C246.653 74.2867 246.653 73.8505 246.608 73.4208C246.647 54.9254 246.653 36.4301 246.757 17.9412C246.757 15.9882 245.999 15.6041 244.282 15.6562C241.042 15.7603 237.803 15.8385 234.564 15.6562C232.102 15.5064 231.201 16.164 231.272 18.8266C231.467 25.7404 231.357 32.6672 231.318 39.5875C231.318 40.4729 231.739 41.5406 230.618 42.4259L202.701 15.539C200.991 14.8879 199.293 14.6341 197.622 15.6366C197.622 15.858 197.622 16.0728 197.57 16.2876L197.518 72.887C197.252 74.2541 197.764 74.9116 199.19 74.9051C203.155 74.9051 207.113 74.9051 211.072 74.866C212.238 74.866 213.274 74.4624 212.639 72.913C211.843 67.0213 212.413 61.1036 212.335 55.1989C212.303 52.8747 211.745 50.4725 212.788 48.207C215.451 50.121 216.896 53.5062 220.33 54.4827V54.5153C220.265 55.0231 220.472 55.2314 220.978 55.1077L221.023 55.1468C220.919 55.6676 221.12 55.8694 221.671 55.7327L221.729 55.7848C221.6 56.3186 221.801 56.5139 222.325 56.3772L222.384 56.4293C222.26 56.9696 222.448 57.1649 222.986 56.9761L223.07 57.0673C222.921 57.6141 223.07 57.8029 223.64 57.5816L223.764 57.6858C223.453 58.5907 224.036 58.6623 224.684 58.6753L227.275 61.1622C227.541 62.998 228.947 63.8248 230.333 64.6777L230.961 65.2766Z" fill="#20181B"/>
<path d="M90.2233 45.4921V16.5871C90.2233 15.2069 89.8669 13.7617 92.1669 13.8268C100.246 14.0676 108.364 13.4166 116.417 14.1718C129.426 15.3892 137.246 25.3237 136.76 39.7762C136.391 50.7784 126.252 60.3158 114.616 60.6088C108.94 60.752 108.94 60.752 108.94 66.4093C108.94 69.4365 108.863 72.4702 108.973 75.5235C109.025 77.0729 108.558 77.5742 106.984 77.5482C102.131 77.4505 97.2657 77.418 92.426 77.5482C90.4306 77.6068 90.165 76.7669 90.1714 75.0678C90.2557 65.1919 90.2233 55.342 90.2233 45.4921ZM128.895 51.4685C130.236 50.4073 131.798 49.4829 131.487 47.3671C135.277 43.4154 135.374 38.2529 134.914 33.5135C133.961 23.8198 125.273 16.1183 115.536 15.7863C108.409 15.5389 101.283 15.7863 94.1559 15.6626C92.4066 15.6626 91.979 16.2811 91.992 17.9281C92.0697 36.2304 92.1151 54.5326 92.128 72.8348C91.8689 73.9546 92.3548 74.3712 93.4238 74.3647C97.5637 74.3647 101.697 74.3647 105.837 74.3647C106.861 74.3647 107.489 74.0392 107.185 72.8544C107.228 67.9066 107.275 62.9568 107.327 58.0047C108.701 57.9331 110.074 57.8094 111.448 57.7898C116.061 57.7182 120.583 57.2365 124.613 54.7366C125.312 54.3004 126.887 54.346 126.284 52.725C127.729 53.4671 128.195 52.1976 128.895 51.4685Z" fill="#241C29"/>
<path d="M310.197 68.7791C310.262 67.6202 309.044 67.6788 308.545 67.0343C307.055 65.0813 306.102 63.1933 308.596 61.2728C309.252 60.7105 309.873 60.1082 310.456 59.4695C311.991 57.9527 313.294 55.941 315.134 55.0556C317.55 53.8903 318.295 57.191 320.2 57.9722C323.692 59.4044 327.126 60.3614 330.845 59.2091C332.322 58.7534 333.715 58.0764 333.436 56.0842C333.676 53.0765 331.071 52.4841 329.27 51.449C323.731 48.2851 317.369 46.5403 312.756 41.7619C312.516 41.5145 311.94 41.5991 311.525 41.521C307.346 32.192 308.564 24.7899 315.127 19.5232C322.526 13.5859 334.823 13.2279 342.299 18.7289C343.614 19.6703 344.753 20.8385 345.662 22.1793C346.245 23.0647 346.957 23.9241 346.536 25.135C344.113 26.5737 342.364 28.7806 340.42 30.7272C339.04 32.1203 338.256 32.6802 336.462 31.0332C334.006 28.7676 330.754 28.1817 327.443 28.8002C325.318 29.1973 324.463 30.2845 324.489 32.0943C323.627 34.1385 325.519 34.464 326.543 34.9783C329.134 36.2803 331.868 37.2764 334.544 38.3961C338.061 39.7751 341.291 41.8019 344.068 44.3725C350.248 50.3488 350.955 59.7039 345.759 66.2727C345.442 66.3243 345.137 66.4323 344.858 66.5916C334.939 75.4976 324.178 75.2892 312.944 69.5082C312.074 69.1168 311.146 68.8705 310.197 68.7791Z" fill="#FC0304"/>
<path d="M310.197 68.7791C311.144 68.8712 312.069 69.1175 312.937 69.5082C324.171 75.2893 334.933 75.4976 344.852 66.5917C345.131 66.4324 345.436 66.3243 345.752 66.2727C346.251 67.7831 344.975 68.408 344.191 69.1697C336.028 77.1642 318.703 77.392 310.365 69.6319C310.197 69.4757 310.249 69.0721 310.197 68.7791Z" fill="#E8D4DC"/>
<path d="M324.502 32.0944C324.502 30.2845 325.331 29.1974 327.456 28.8002C330.767 28.1818 334.019 28.8002 336.475 31.0332C338.269 32.6998 339.066 32.1204 340.433 30.7272C342.377 28.7742 344.126 26.5738 346.549 25.135C347.314 26.1246 346.484 26.743 345.94 27.3289C344.994 28.3445 343.945 29.282 342.934 30.2324C341.638 31.4954 340.498 33.162 338.937 33.9172C336.954 34.8742 336.222 32.1855 334.596 31.58C331.078 30.291 327.741 29.92 324.502 32.0944Z" fill="#E8D4DC"/>
<path d="M311.544 41.521C311.959 41.5991 312.536 41.521 312.775 41.7619C317.388 46.5403 323.75 48.272 329.29 51.449C331.091 52.4841 333.695 53.0765 333.455 56.0842C329.918 53.474 326.054 51.3441 321.962 49.7498C318.127 48.1614 314.946 45.668 311.881 42.9598C311.673 42.7924 311.527 42.5596 311.466 42.2988C311.405 42.038 311.432 41.7641 311.544 41.521Z" fill="#E8D4DC"/>
<path d="M335.891 37.1202L328.331 34.0604C331.745 33.5982 334.473 33.5852 335.891 37.1202Z" fill="#E8D4DC"/>
<path d="M2.04728 72.8089C2.04728 69.5538 2.04728 66.2987 1.96954 63.0892C1.96954 61.7025 2.41657 61.1362 3.82894 61.2208C5.97989 61.3054 8.15027 61.0841 10.3077 61.2859C12.6919 61.5072 13.4499 60.752 13.4111 58.2717C13.2685 48.4478 13.3462 38.6305 13.3462 28.8067C13.8581 26.8536 12.4716 27.0034 11.3184 26.9969C8.26041 26.9969 5.19596 26.9969 2.13151 26.9969C1.99545 23.3447 0.61547 18.7094 2.57206 16.3397C4.52864 13.97 9.23226 15.7278 12.7308 15.6887C19.8186 15.565 26.9128 15.6887 34.0005 15.6171C35.7822 15.6171 36.5273 16.0793 36.4236 17.9608C36.2616 20.9685 36.2746 23.9827 36.2098 26.9969C33.113 26.9969 30.0226 26.9383 26.9257 26.9969C25.9669 26.9969 24.1463 26.5737 25.2477 28.7481C25.1959 38.7738 25.1765 48.8059 25.0599 58.8315C25.0599 60.6153 25.5004 61.377 27.3922 61.2533C29.6403 61.1101 31.9273 61.3119 34.1625 61.1947C35.8276 61.1101 36.4884 61.67 36.4171 63.3822C36.3005 66.507 36.3264 69.6319 36.2941 72.7633L2.04728 72.8089Z" fill="#2DA4E0"/>
<path d="M2.04727 72.8088H36.2681C36.6309 74.2411 36.0997 74.6838 34.629 74.6773C24.3537 74.6122 14.0719 74.6317 3.79655 74.6382C2.54615 74.6122 1.61967 74.3973 2.04727 72.8088Z" fill="#CEC7DB"/>
<path d="M25.2218 28.7676C24.1204 26.5933 25.941 27.0425 26.8998 27.0164C29.9967 26.9383 33.087 27.0164 36.1839 27.0164C36.6503 28.6244 35.7239 28.7546 34.4735 28.7481C31.3896 28.6961 28.3057 28.7481 25.2218 28.7676Z" fill="#FAFAFA"/>
<path d="M2.10559 27.0164C5.17005 27.0164 8.2345 26.9773 11.2925 27.0164C12.4457 27.0164 13.8322 26.8862 13.3203 28.8262C10.1457 28.8262 6.97114 28.7221 3.80302 28.7481C2.55262 28.7351 1.65208 28.6179 2.10559 27.0164Z" fill="#FAFAFA"/>
<path d="M284.981 72.7763C281.787 66.7999 277.453 61.5658 273.967 55.7587C273.54 55.0296 273.06 54.333 272.6 53.6234C272.6 53.0179 272.879 52.3539 272.173 51.8786C270.599 53.6429 271.46 55.7847 271.311 57.7378C270.922 62.7246 271.959 67.7764 270.663 72.7111H257.058C257.058 53.7405 257.036 34.7721 256.993 15.8059C261.088 15.7668 265.182 15.8059 269.27 15.6496C271.298 15.565 271.862 16.3006 271.804 18.2537C271.631 23.9886 271.848 29.7286 272.451 35.434C276.015 29.705 279.662 24.0217 283.09 18.2146C284.223 16.3006 285.467 15.5389 287.696 15.6496C291.674 15.8384 295.665 15.7603 299.656 15.6496C302.046 15.604 302.506 16.216 301.133 18.3448C296.345 25.7859 291.765 33.3702 286.88 40.7658C285.39 43.0248 285.428 44.6394 286.931 46.8463C292.762 55.4072 298.405 64.0982 304.12 72.7372L284.981 72.7763Z" fill="#FD0304"/>
<path d="M257.051 15.8124C257.051 34.783 257.073 53.7514 257.116 72.7177C257.047 72.7841 256.964 72.8343 256.873 72.8647C256.783 72.8951 256.686 72.9049 256.592 72.8935C256.544 54.3221 256.505 35.7508 256.475 17.1795C256.475 16.6587 256.43 16.0858 257.051 15.8124Z" fill="#E12931"/>
<path d="M284.981 72.7762H304.178C304.223 73.3491 305.817 74.3582 303.796 74.3712C298.081 74.3973 292.369 74.3973 286.659 74.3712C286.442 74.3907 286.223 74.3635 286.016 74.2915C285.81 74.2195 285.621 74.1043 285.463 73.9535C285.304 73.8027 285.179 73.6198 285.096 73.4169C285.013 73.2139 284.974 72.9955 284.981 72.7762Z" fill="#FAFAFA"/>
<path d="M256.592 72.887C256.686 72.8984 256.783 72.8886 256.873 72.8582C256.964 72.8278 257.047 72.7776 257.116 72.7112H270.722L271.719 72.8609C271.966 74.0653 271.298 74.3518 270.275 74.3518C266.193 74.3518 262.111 74.3518 258.03 74.3518C257 74.3778 256.345 74.0979 256.592 72.887Z" fill="#FAFAFA"/>
<path d="M271.719 72.887L270.722 72.7373C272.017 67.7831 270.955 62.7312 271.37 57.7639C271.519 55.8109 270.657 53.669 272.231 51.9048C272.937 52.38 272.665 53.0441 272.659 53.6495C271.538 54.7758 271.959 56.2536 271.933 57.5556C271.797 62.6335 271.771 67.757 271.719 72.887Z" fill="#E12931"/>
<path d="M43.6863 72.887C43.6474 54.5023 43.5999 36.1176 43.5438 17.7329C43.5438 16.2161 43.9843 15.6497 45.5587 15.6562C57.5185 15.7039 69.4804 15.7039 81.4446 15.6562C83.2975 15.6562 83.5307 16.4439 83.5113 17.9803C83.4335 24.7964 83.4465 31.6061 83.4271 38.4222H72.0374C71.964 35.6098 71.897 32.8018 71.8365 29.998C71.8365 29.5488 71.8365 29.0996 71.8819 28.6439C72.2382 27.2247 71.3765 27.0164 70.2816 27.0164C65.8048 27.0164 61.3345 27.0164 56.8641 27.0164C55.8016 27.0164 54.9205 27.2117 55.212 28.6439L55.3675 30.0306C55.3157 39.7503 55.2833 49.47 55.1991 59.1896C55.1991 60.687 55.6979 61.3184 57.2658 61.2924C61.5677 61.2143 65.8761 61.2208 70.1845 61.2924C71.6551 61.2924 72.0115 60.6414 71.9791 59.3393C71.9207 56.859 72.0244 54.3656 71.9791 51.8852C71.9337 50.479 72.4844 49.8866 73.8579 50.0233C73.9657 50.0331 74.0741 50.0331 74.1819 50.0233C83.5177 49.522 83.5242 49.522 83.5113 58.9422C83.5113 63.5905 83.453 68.2322 83.4206 72.8805L43.6863 72.887Z" fill="#2CA5E1"/>
<path d="M43.6863 72.887H83.3946C83.738 74.4103 82.7467 74.4104 81.7037 74.4104H45.4226C44.4443 74.3713 43.3753 74.4168 43.6863 72.887Z" fill="#FAFAFA"/>
<path d="M72.0373 38.3831H83.427C83.6538 39.4898 83.5113 40.3361 82.0924 40.3361C79.1964 40.3361 76.2615 40.3361 73.3914 40.3361C72.0503 40.3361 71.7458 39.5549 72.0373 38.3831Z" fill="#CEC7DB"/>
<path d="M55.3675 30.0111L55.212 28.6244H71.8819C71.8819 29.0801 71.8495 29.5293 71.8365 29.9785L55.3675 30.0111Z" fill="#573379"/>
<path d="M187.832 55.6025C188.247 59.2221 186.627 62.1126 184.593 64.8729C184.131 65.1291 183.697 65.4324 183.297 65.7779C172.886 76.8451 157.706 77.3074 146.893 66.8716C146.167 66.1685 145.52 65.5174 144.444 65.5695C141.043 59.2937 140.479 52.5492 140.693 45.5247C140.965 36.5472 140.822 27.5567 140.693 18.5727C140.693 16.3071 141.341 15.5389 143.615 15.6626C146.851 15.8718 150.097 15.8718 153.333 15.6626C155.924 15.4673 156.333 16.561 156.313 18.8331C156.216 29.6595 156.19 40.4794 156.313 51.3057C156.378 58.0373 162.688 61.9043 168.493 58.9226C171.733 57.256 173.028 54.4827 172.99 50.9282C172.957 40.2125 173.041 29.4967 172.925 18.781C172.925 16.4634 173.333 15.4868 175.892 15.6626C179.863 15.9295 183.861 15.8189 187.845 15.8644C187.815 29.1018 187.811 42.3478 187.832 55.6025Z" fill="#FC0203"/>
<path d="M144.431 65.5565C145.507 65.5174 146.154 66.1684 146.88 66.8585C157.693 77.2747 172.873 76.819 183.284 65.7648C183.684 65.4193 184.118 65.1161 184.58 64.8599C184.674 65.1649 184.69 65.4888 184.627 65.8017C184.563 66.1146 184.422 66.4064 184.217 66.6502C176.028 79.7291 151.914 79.065 144.431 65.5565Z" fill="#E8D4DC"/>
<path d="M187.832 55.6024C187.832 42.3478 187.832 29.0931 187.832 15.8384C188.551 16.242 188.377 16.9516 188.377 17.5636C188.377 29.5423 188.377 41.5209 188.377 53.4996C188.357 54.2288 188.526 55.0361 187.832 55.6024Z" fill="#E12931"/>
<path d="M202.701 15.5389L230.644 42.3804C231.765 41.4754 231.337 40.4273 231.344 39.5419C231.383 32.6216 231.493 25.6948 231.298 18.781C231.227 16.1184 232.128 15.4608 234.59 15.6106C237.829 15.8124 241.068 15.7343 244.308 15.6106C246.025 15.5585 246.796 15.9231 246.783 17.8957C246.679 36.3845 246.672 54.8799 246.634 73.3752L241.658 73.1343C239.773 71.2269 237.997 69.2282 235.97 67.464C234.233 65.9862 233.203 63.597 230.644 63.1413C229.736 62.6905 228.993 61.9639 228.519 61.0645C224.509 55.0361 218.535 50.9152 213.618 45.7461C213.487 45.6729 213.341 45.6312 213.192 45.6245C213.042 45.6177 212.893 45.646 212.756 45.707C212.238 45.9349 212.387 46.4427 212.562 46.8007C213.201 48.1641 213.499 49.6637 213.43 51.1691C213.43 57.4123 213.43 63.6555 213.391 69.8988C213.391 70.9079 213.812 72.0927 212.691 72.8609L198.14 72.6786C198.14 55.1186 198.14 37.5585 198.14 19.9984C198.14 18.7485 198.568 17.3943 197.602 16.2746C197.602 16.0532 197.635 15.8384 197.654 15.6236L202.701 15.5389Z" fill="#FC0304"/>
<path d="M212.704 72.8869C213.825 72.1187 213.398 70.9339 213.404 69.9248C213.449 63.6816 213.404 57.4383 213.443 51.1951C213.512 49.6897 213.214 48.1902 212.575 46.8268C212.4 46.4687 212.251 45.9609 212.769 45.7331C212.906 45.672 213.055 45.6437 213.204 45.6505C213.354 45.6573 213.5 45.6989 213.631 45.7721C218.529 50.9412 224.502 55.0621 228.532 61.0905H227.236L224.645 58.6037C224.623 58.3592 224.521 58.1291 224.354 57.9498C224.187 57.7705 223.966 57.6523 223.725 57.6141L223.602 57.5099L223.031 56.9957L222.941 56.911L222.345 56.3576L222.286 56.3056L221.69 55.7131L221.632 55.661C221.638 55.5767 221.625 55.492 221.594 55.4135C221.563 55.335 221.514 55.2648 221.451 55.2082C221.389 55.1516 221.314 55.1102 221.233 55.0872C221.152 55.0641 221.067 55.06 220.984 55.0752L220.939 55.0361C220.94 54.9528 220.924 54.8701 220.891 54.7937C220.858 54.7172 220.81 54.6486 220.748 54.5926C220.687 54.5365 220.614 54.4942 220.536 54.4686C220.457 54.4429 220.373 54.4344 220.291 54.4436V54.4111C218.606 51.807 216.047 50.0233 213.916 47.8424C213.501 47.4192 212.853 46.9114 212.75 48.1353C211.707 50.4008 212.264 52.8031 212.296 55.1272C212.374 61.0319 211.804 66.9497 212.601 72.8414L212.704 72.8869Z" fill="#E8D4DC"/>
<path d="M212.704 72.887H212.652C213.3 74.469 212.251 74.84 211.085 74.84C207.126 74.8986 203.168 74.84 199.203 74.8791C197.777 74.8791 197.259 74.2281 197.531 72.861C197.756 72.8458 197.977 72.786 198.179 72.6852L212.704 72.887Z" fill="#CEC7DB"/>
<path d="M198.166 72.6982C197.964 72.7991 197.743 72.8588 197.518 72.874L197.576 16.2942C198.542 17.4139 198.108 18.768 198.114 20.018C198.149 37.5781 198.166 55.1382 198.166 72.6982Z" fill="#E12931"/>
<path d="M246.672 74.7032C246.328 75.1371 245.901 75.4982 245.418 75.7659C244.934 76.0336 244.402 76.2026 243.853 76.2631C243.304 76.3236 242.748 76.2744 242.218 76.1185C241.688 75.9625 241.194 75.7028 240.764 75.3542C239.319 74.0522 237.784 72.8479 236.812 71.1162L237.246 70.6539L241.457 74.2996C243.122 75.3152 244.923 74.6511 246.672 74.7032Z" fill="#573379"/>
<path d="M212.801 48.1484C212.905 46.9245 213.553 47.4323 213.968 47.8554C216.099 50.0364 218.658 51.8071 220.343 54.4242C216.909 53.4607 215.464 50.1015 212.801 48.1484Z" fill="#573379"/>
<path d="M246.672 74.7032C244.923 74.6511 243.122 75.3152 241.489 74.2801L241.684 73.1538L246.659 73.3947C246.64 73.8309 246.66 74.267 246.672 74.7032Z" fill="#FAFAFA"/>
<path d="M227.243 61.1166H228.538C229.012 62.0159 229.756 62.7426 230.663 63.1933C230.663 63.5709 230.663 63.942 230.663 64.3131L230.301 64.6646C228.914 63.7727 227.508 62.9524 227.243 61.1166Z" fill="#573379"/>
<path d="M202.701 15.5389L197.622 15.6366C199.313 14.634 201.01 14.8553 202.701 15.5389Z" fill="#E12931"/>
<path d="M223.763 57.6401C224.005 57.6784 224.226 57.7965 224.393 57.9758C224.56 58.1551 224.662 58.3852 224.684 58.6297C224.036 58.6166 223.433 58.5646 223.763 57.6401Z" fill="#573379"/>
<path d="M223.07 57.0217L223.64 57.536C223.096 57.7574 222.921 57.5686 223.07 57.0217Z" fill="#573379"/>
<path d="M232.912 67.2101L232.264 66.5591L232.633 66.1945L233.281 66.8455L232.912 67.2101Z" fill="#573379"/>
<path d="M233.559 67.8612L232.912 67.2102L233.287 66.826L233.935 67.4771L233.559 67.8612Z" fill="#573379"/>
<path d="M234.214 68.5121L233.566 67.8611L233.942 67.4705L234.59 68.1215L234.214 68.5121Z" fill="#573379"/>
<path d="M234.862 69.1567L234.214 68.5057L234.603 68.1021L235.25 68.7531L234.862 69.1567Z" fill="#573379"/>
<path d="M235.51 69.8077L234.862 69.1567L235.276 68.74L235.924 69.391L235.51 69.8077Z" fill="#573379"/>
<path d="M236.164 70.4522L235.516 69.8012L235.937 69.3715L236.585 70.0225L236.164 70.4522Z" fill="#573379"/>
<path d="M232.257 66.5592L231.609 65.9081C231.732 65.791 231.856 65.6737 231.972 65.55L232.62 66.2011L232.257 66.5592Z" fill="#573379"/>
<path d="M220.362 54.4697C220.445 54.4604 220.528 54.4689 220.607 54.4946C220.686 54.5203 220.758 54.5626 220.819 54.6186C220.881 54.6747 220.93 54.7433 220.962 54.8197C220.995 54.8962 221.012 54.9788 221.01 55.0621C220.505 55.1858 220.297 54.9775 220.362 54.4697Z" fill="#573379"/>
<path d="M221.055 55.1012C221.138 55.0861 221.223 55.0902 221.304 55.1133C221.385 55.1364 221.46 55.1777 221.523 55.2343C221.585 55.2909 221.634 55.3612 221.665 55.4397C221.697 55.5182 221.71 55.6028 221.703 55.6872C221.153 55.8239 220.952 55.6221 221.055 55.1012Z" fill="#573379"/>
<path d="M221.729 55.7391L222.325 56.3316C221.801 56.4683 221.6 56.273 221.729 55.7391Z" fill="#573379"/>
<path d="M230.955 65.2831L230.307 64.6321L230.67 64.2805L231.318 64.9315L230.955 65.2831Z" fill="#573379"/>
<path d="M222.384 56.3837L222.98 56.937C222.448 57.1193 222.26 56.924 222.384 56.3837Z" fill="#573379"/>
<path d="M231.603 65.9146L230.955 65.2635L231.311 64.8925L231.959 65.5435C231.856 65.6802 231.726 65.7974 231.603 65.9146Z" fill="#573379"/>
<path d="M236.812 71.0967L236.164 70.4457L236.585 70.0095L237.233 70.628L236.812 71.0967Z" fill="#573379"/>
<path d="M107.353 57.9982C107.306 62.946 107.258 67.8958 107.211 72.8479H92.128C92.0891 54.5413 92.0438 36.2391 91.9919 17.9412C91.9919 16.2941 92.4066 15.6496 94.1559 15.6757C101.283 15.7733 108.409 15.552 115.536 15.7994C125.254 16.1314 133.961 23.8329 134.914 33.5265C135.387 38.2789 135.277 43.4285 131.486 47.3802C129.99 48.0312 129.212 49.4895 128.137 50.6352C127.418 51.2472 126.031 51.2863 126.323 52.7576C125.027 51.9243 124.263 53.2458 123.375 53.6755C118.795 55.902 113.942 56.1103 109.018 55.954C107.463 55.8629 106.304 56.0257 107.353 57.9982ZM107.314 31.4888C107.314 32.7909 107.36 34.0929 107.36 35.3949C107.36 42.5561 107.684 42.81 114.985 41.7944C117.706 41.4168 119.624 39.8935 120.168 37.1983C120.68 34.6919 119.624 32.7128 117.22 31.593C117.117 31.1959 117.13 30.5579 116.89 30.4407C113.877 28.9824 110.657 29.3665 107.509 29.666C106.634 29.7246 106.815 30.7923 107.314 31.4888Z" fill="#FC0304"/>
<path d="M107.353 57.9983C106.304 56.0452 107.47 55.8629 109.005 55.915C113.929 56.0713 118.782 55.8629 123.362 53.6365C124.25 53.2068 124.995 51.8853 126.31 52.7186C126.913 54.3396 125.338 54.294 124.638 54.7302C120.609 57.2301 116.087 57.7118 111.474 57.7834C110.1 57.803 108.759 57.9137 107.353 57.9983Z" fill="#E8D4DC"/>
<path d="M92.128 72.8348H107.211C107.515 74.0197 106.887 74.3452 105.863 74.3452C101.723 74.3452 97.5896 74.3452 93.4497 74.3452C92.3548 74.3712 91.8689 73.9546 92.128 72.8348Z" fill="#FAFAFA"/>
<path d="M128.124 50.6027C129.2 49.4765 129.977 48.0442 131.474 47.3477C131.797 49.4635 130.236 50.3879 128.882 51.4491L128.124 50.6027Z" fill="#CEC7DB"/>
<path d="M128.124 50.6027L128.895 51.4685C128.182 52.1976 127.729 53.4671 126.304 52.725C126.018 51.2472 127.405 51.2146 128.124 50.6027Z" fill="#E8D4DC"/>
<path d="M71.8819 28.6179H55.212C54.8945 27.1857 55.8016 26.9904 56.8641 26.9904C61.3344 26.9904 65.8048 26.9904 70.2816 26.9904C71.3765 26.9839 72.2382 27.1922 71.8819 28.6179Z" fill="#FAFAFA"/>
<path d="M237.246 70.6345L236.598 70.016L235.95 69.365L235.302 68.714L234.654 68.063L234.006 67.412L233.359 66.7609L232.711 66.1099L232.063 65.4589L231.415 64.8079L230.767 64.1569C230.767 63.7858 230.767 63.4147 230.767 63.0371C233.359 63.4928 234.356 65.8821 236.093 67.3599C238.12 69.0916 239.896 71.1227 241.781 73.0302L241.587 74.1565L237.246 70.6345Z" fill="#E8D4DC"/>
<path d="M117.227 31.567C119.63 32.6867 120.686 34.6658 120.175 37.1722C119.624 39.8674 117.706 41.3908 114.992 41.7684C107.69 42.784 107.373 42.504 107.366 35.3689C107.366 34.0669 107.366 32.7648 107.321 31.4628C110.618 30.955 113.942 31.7753 117.227 31.567ZM112.238 40.2125C112.886 40.2457 113.534 40.2457 114.182 40.2125C116.093 40.0041 118.192 39.2685 118.192 37.2829C118.192 35.2973 116.061 34.5812 114.149 34.4379C112.983 34.3468 111.811 34.3793 110.638 34.3859C109.99 34.3859 109.342 34.3273 109.005 35.0369C107.722 37.6474 109.336 40.232 112.238 40.2125Z" fill="#221529"/>
<path d="M117.227 31.5671C113.923 31.7754 110.618 30.9551 107.314 31.4889C106.841 30.7923 106.666 29.7247 107.515 29.64C110.664 29.3406 113.884 28.9565 116.896 30.4148C117.136 30.5319 117.123 31.1699 117.227 31.5671Z" fill="#E8D4DC"/>
</g>
<path d="M17 1H302.5" stroke="white" stroke-dasharray="2 2"/>
<path d="M17 91H302.5" stroke="white" stroke-dasharray="2 2"/>
<defs>
<clipPath id="clip0_101_18">
<rect width="351" height="66" fill="white" transform="translate(0 13)"/>
</clipPath>
</defs>
</svg>
