<svg width="20" height="16" viewBox="0 0 20 16"  xmlns="http://www.w3.org/2000/svg">
<path d="M16.7864 1.78684C19.0149 5.07171 20.1155 8.77695 19.7041 13.0425C19.7023 13.0606 19.693 13.0771 19.6782 13.088C17.9906 14.3304 16.3555 15.0843 14.7433 15.5843C14.7308 15.5881 14.7174 15.5879 14.7049 15.5837C14.6925 15.5795 14.6817 15.5715 14.674 15.5608C14.3016 15.0413 13.9632 14.4936 13.6667 13.9184C13.6497 13.8845 13.6652 13.8437 13.7002 13.8304C14.2377 13.6273 14.7488 13.384 15.2403 13.0959C15.2791 13.0732 15.2815 13.0176 15.2458 12.9908C15.1414 12.9132 15.0381 12.8316 14.9392 12.75C14.9207 12.7349 14.8958 12.7319 14.8748 12.7421C11.6833 14.2196 8.18723 14.2196 4.95802 12.7421C4.93706 12.7327 4.91214 12.7359 4.89414 12.7507C4.79548 12.8323 4.69188 12.9132 4.58853 12.9908C4.55277 13.0176 4.55573 13.0732 4.5947 13.0959C5.08628 13.3786 5.59735 13.6273 6.13407 13.8314C6.16885 13.8447 6.18538 13.8845 6.16811 13.9184C5.87805 14.4943 5.53963 15.042 5.16028 15.5616C5.14375 15.5826 5.11662 15.5922 5.09097 15.5843C3.48647 15.0843 1.8514 14.3304 0.163779 13.088C0.149719 13.0771 0.139606 13.0598 0.138126 13.0418C-0.205711 9.35212 0.495037 5.61622 3.0531 1.7861C3.05927 1.77596 3.06864 1.76805 3.07949 1.76335C4.33818 1.18422 5.68664 0.75816 7.09603 0.514836C7.12168 0.51088 7.14734 0.522749 7.16065 0.545499C7.33479 0.854599 7.53384 1.25099 7.66852 1.57493C9.15412 1.34743 10.6629 1.34743 12.1796 1.57493C12.3143 1.25791 12.5064 0.854599 12.6798 0.545499C12.686 0.534213 12.6956 0.525171 12.7072 0.519665C12.7188 0.514158 12.7318 0.512468 12.7444 0.514836C14.1546 0.758902 15.503 1.18496 16.7607 1.76335C16.7718 1.76805 16.781 1.77596 16.7864 1.78684ZM8.42378 8.80217C8.43932 7.71142 7.64607 6.80885 6.65032 6.80885C5.66272 6.80885 4.87712 7.70351 4.87712 8.80217C4.87712 9.90059 5.67826 10.7952 6.65032 10.7952C7.63818 10.7952 8.42378 9.90059 8.42378 8.80217ZM14.9804 8.80217C14.9959 7.71142 14.2027 6.80885 13.2072 6.80885C12.2193 6.80885 11.4337 7.70351 11.4337 8.80217C11.4337 9.90059 12.2348 10.7952 13.2072 10.7952C14.2027 10.7952 14.9804 9.90059 14.9804 8.80217Z"/>
</svg>
