<svg width="81" height="38" viewBox="0 0 81 38" fill="none" xmlns="http://www.w3.org/2000/svg">
<path d="M0 0C6.90593 0.0231313 13.7888 0.0848092 20.6832 0.0424018C22.1028 0.0424018 22.7282 0.265996 22.6246 1.88904C22.4941 4.32121 22.4941 6.75866 22.6246 9.19083C22.6821 10.5093 22.2025 10.7715 20.9978 10.7676C19.3059 10.7676 16.9847 9.96958 16.0831 11.1184C15.2352 12.1979 15.8107 14.4224 15.7992 16.1302C15.7992 19.2144 15.8645 22.2986 15.7609 25.3596C15.7187 26.7436 16.0064 27.3682 17.5219 27.2024C18.7841 27.0636 20.0771 27.2371 21.3585 27.1562C22.4059 27.0868 22.6438 27.5108 22.6208 28.4862C22.5594 31.1849 22.567 33.8835 22.6208 36.5822C22.6399 37.5113 22.3368 37.7888 21.4237 37.7811C14.4027 37.7233 7.37782 37.7117 0.352963 37.6848C0.352963 36.4819 0.399 35.2753 0.326104 34.0763C0.195659 31.9598 0.709767 29.8085 0.0153381 27.719V26.948C2.01422 27.4838 4.04764 27.0636 6.06186 27.187C6.95963 27.241 6.87139 26.5972 6.87139 26.0304C6.87139 21.3464 6.83686 16.6661 6.89441 11.982C6.89441 10.9141 6.51076 10.6944 5.56695 10.7329C3.71769 10.8062 1.86459 10.7792 0.0153381 10.7908L0 0ZM7.88426 8.95181C7.88426 14.7693 7.84205 20.583 7.92646 26.4005C7.94948 27.8694 7.5006 28.3281 6.08872 28.1855C4.82647 28.066 3.5412 28.1855 2.2521 28.147C1.41571 28.1123 1.1318 28.4322 1.15099 29.2534C1.20086 31.181 1.18552 33.0893 1.19703 35.0092C0.943808 35.9499 1.49245 36.0771 2.23292 36.0771C8.31781 36.0771 14.4065 36.0771 20.4914 36.1003C21.3623 36.1003 21.6769 35.842 21.4621 34.9938C21.4621 33.1395 21.4621 31.2889 21.535 29.4384C21.5772 28.4245 21.1859 28.093 20.1998 28.1431C18.8685 28.2125 17.5142 28.093 16.1906 28.1778C15.0703 28.251 14.7979 27.7923 14.8094 26.7436C14.8784 20.8066 14.89 14.8657 14.9206 8.92868C16.7469 8.92868 18.5731 8.88627 20.3993 8.90555C21.1398 8.90555 21.6884 8.83231 21.4122 7.88007C21.4506 6.0951 21.4429 4.31013 21.5388 2.52902C21.6002 1.41486 21.1552 1.12959 20.1039 1.14115C15.9067 1.19127 11.7055 1.11031 7.50828 1.18355C5.4365 1.21825 2.61275 0.227461 1.49245 1.56908C0.372158 2.91069 1.151 5.71729 1.23157 7.88007C0.963001 8.82074 1.49629 8.89785 2.23676 8.89399C4.12822 8.89014 6.00815 8.93253 7.88426 8.95181Z" fill="#1C1823"/>
<path d="M0 27.7306C0.698266 29.8201 0.180321 31.9713 0.310766 34.0878C0.383662 35.2868 0.333788 36.4935 0.337625 37.6963L0.172653 37.758L0 37.7387V27.7306Z" fill="#573379"/>
<path d="M24.8383 19.014C24.8383 13.3044 24.8805 7.59868 24.8076 1.89295C24.8076 0.543627 25.011 0.0116235 26.5456 0.0308996C34.0194 0.123425 41.5085 0.100294 48.9707 0.0308996C50.2368 0.0308996 50.5859 0.381718 50.5667 1.63852C50.4938 6.38429 50.5015 11.1301 50.5667 15.8758C50.5667 17.0324 50.3135 17.4642 49.0935 17.4179C47.0524 17.3177 45.0036 17.3254 42.9549 17.4179C41.8039 17.468 41.4586 17.0324 41.6121 15.9876C41.6178 15.9235 41.6178 15.859 41.6121 15.7949C41.4931 14.1564 42.3103 11.5541 41.3013 11.0761C39.2679 10.1007 36.6973 10.7908 34.334 10.76C33.651 10.76 33.7776 11.3267 33.7738 11.7469C33.7738 16.5543 33.793 21.385 33.7738 26.1731C33.7738 27.0753 34.1575 27.2333 34.9248 27.214C36.7127 27.1755 38.5044 27.1408 40.2961 27.214C41.4471 27.2718 41.708 26.7591 41.6619 25.7413C41.6044 24.3959 41.7003 23.0427 41.6351 21.7011C41.5852 20.7257 41.8576 20.3402 42.9012 20.3787C45.0727 20.452 47.2481 20.4404 49.4234 20.3787C50.3787 20.3517 50.5974 20.7334 50.5744 21.6163C50.5437 26.5509 50.5245 31.4895 50.5744 36.428C50.5744 37.5846 50.1409 37.7773 49.1242 37.7735C41.52 37.7375 33.917 37.7375 26.3154 37.7735C25.1644 37.7735 24.8038 37.519 24.8191 36.3008C24.8882 30.5565 24.8383 24.7853 24.8383 19.014ZM49.3927 14.6229C49.3927 10.5865 49.3927 6.55391 49.4426 2.5175C49.4426 1.60766 49.316 1.13349 48.2187 1.1412C41.1363 1.18233 34.0526 1.18233 26.9676 1.1412C26.0353 1.1412 25.7706 1.47273 25.7745 2.371C25.8179 13.2581 25.8461 24.1453 25.8589 35.0324C25.6747 35.9538 26.3077 35.9268 26.9024 35.9268H48.3875C49.0052 35.9268 49.5922 35.9268 49.3889 35.0247C49.3889 32.2721 49.4388 29.5233 49.4426 26.7707C49.4426 21.1922 49.4426 21.1922 43.9179 21.489C43.854 21.4948 43.7898 21.4948 43.726 21.489C42.9127 21.4081 42.575 21.7589 42.6134 22.5916C42.6556 24.0605 42.5942 25.537 42.6134 27.0058C42.6134 27.7769 42.4216 28.1624 41.5507 28.1624C38.9993 28.1239 36.4479 28.12 33.9004 28.1624C32.972 28.1624 32.6689 27.8039 32.6765 26.9172C32.7264 21.1613 32.7456 15.4055 32.7763 9.64965L42.529 9.62268L42.6479 14.6113C42.4753 15.3014 42.6479 15.7447 43.4498 15.7679C45.1686 15.7679 46.9028 15.7679 48.6024 15.7679C49.4426 15.7794 49.5385 15.2783 49.4042 14.6229H49.3927Z" fill="#1C1823"/>
<path d="M53.4289 18.8326V1.71549C53.4289 0.89818 53.2179 0.0423248 54.5799 0.080877C59.3641 0.22352 64.1714 -0.162014 68.9403 0.285191C76.6443 1.00612 81.2751 6.88919 80.9873 15.4478C80.7686 21.9631 74.7643 27.611 67.8737 27.7845C64.5129 27.8693 64.5129 27.8693 64.5129 31.2195C64.5129 33.0121 64.4668 34.8087 64.5321 36.6168C64.5628 37.5343 64.2865 37.8312 63.3542 37.8157C60.4806 37.7579 57.5993 37.7386 54.7333 37.8157C53.5516 37.8504 53.3943 37.3531 53.3982 36.3469C53.448 30.4985 53.4289 24.6656 53.4289 18.8326ZM76.3297 22.3717C77.1239 21.7433 78.0485 21.1959 77.8643 19.9429C80.1088 17.6028 80.1663 14.5457 79.8939 11.7391C79.3299 5.99863 74.185 1.43789 68.4186 1.24128C64.1983 1.09478 59.978 1.24128 55.7577 1.16803C54.7218 1.16803 54.4686 1.53429 54.4763 2.50966C54.5223 13.348 54.5492 24.1863 54.5568 35.0246C54.4034 35.6877 54.6911 35.9344 55.3242 35.9305C57.7758 35.9305 60.2235 35.9305 62.6751 35.9305C63.2813 35.9305 63.6535 35.7378 63.4732 35.0361C63.4987 32.1062 63.5269 29.1749 63.5575 26.2424C64.3709 26.2 65.1843 26.1267 65.9977 26.1152C68.7293 26.0727 71.4073 25.7875 73.7937 24.3071C74.208 24.0488 75.1403 24.0758 74.7835 23.1158C75.6391 23.5553 75.9153 22.8035 76.3297 22.3717Z" fill="#241C29"/>
<path d="M1.21237 35.0091C1.21237 33.0815 1.21238 31.1539 1.16634 29.2533C1.16634 28.4321 1.43106 28.0967 2.26745 28.1468C3.54121 28.1969 4.82648 28.0659 6.10407 28.1854C7.51595 28.3164 7.96485 27.8692 7.94183 26.4004C7.85742 20.5829 7.90345 14.7692 7.90345 8.95168C8.20654 7.79511 7.3855 7.88379 6.70258 7.87994C4.8917 7.87994 3.07698 7.87994 1.26225 7.87994C1.18168 5.71716 0.364479 2.97225 1.52314 1.56895C2.6818 0.165648 5.46721 1.20656 7.53899 1.18343C11.7363 1.11018 15.9373 1.18343 20.1346 1.14102C21.1897 1.14102 21.6309 1.41474 21.5695 2.52889C21.4736 4.31 21.4813 6.09497 21.4429 7.87994C19.609 7.87994 17.7789 7.84524 15.945 7.87994C15.3772 7.87994 14.2991 7.62935 14.9513 8.91699C14.9206 14.854 14.9091 20.7949 14.8401 26.7319C14.8401 27.7883 15.101 28.2393 16.2213 28.1661C17.5526 28.0813 18.9069 28.2008 20.2305 28.1314C21.2165 28.0813 21.6079 28.4128 21.5657 29.4268C21.4966 31.2773 21.512 33.1278 21.4928 34.9821L1.21237 35.0091Z" fill="#2DA4E0"/>
<path d="M14.936 8.92859C14.2838 7.64094 15.3619 7.90695 15.9297 7.89153C17.7636 7.84527 19.5937 7.89153 21.4276 7.89153C21.7038 8.84377 21.1552 8.92089 20.4147 8.91703C18.5885 8.88619 16.7622 8.91702 14.936 8.92859Z" fill="#FAFAFA"/>
<path d="M1.24688 7.89163C3.06161 7.89163 4.87633 7.8685 6.68722 7.89163C7.37014 7.89163 8.19118 7.81454 7.88808 8.96339C6.00814 8.96339 4.12819 8.90171 2.25208 8.91713C1.51161 8.90942 0.97832 8.84001 1.24688 7.89163Z" fill="#FAFAFA"/>
<path d="M25.8704 35.0554C25.8474 24.1683 25.8192 13.2812 25.786 2.39403C25.786 1.49577 26.0469 1.16036 26.9792 1.16422C34.0616 1.19249 41.1453 1.19249 48.2302 1.16422C49.3275 1.16422 49.4656 1.63068 49.4541 2.54051C49.4081 6.57692 49.4158 10.6095 49.4042 14.6459H42.6595C42.616 12.9804 42.5763 11.3176 42.5405 9.65725C42.5405 9.39124 42.5405 9.12522 42.5674 8.85536C42.7784 8.01492 42.2681 7.89155 41.6197 7.89155C38.9686 7.89155 36.3214 7.89155 33.6741 7.89155C33.0449 7.89155 32.5231 8.00721 32.6957 8.85536L32.7878 9.67652C32.7571 15.4324 32.7379 21.1882 32.6881 26.9441C32.6881 27.8308 32.9835 28.2047 33.912 28.1893C36.4595 28.143 39.0108 28.1469 41.5622 28.1893C42.4331 28.1893 42.6441 27.8038 42.6249 27.0327C42.5904 25.5639 42.6518 24.0873 42.6249 22.6185C42.5981 21.7858 42.9242 21.4349 43.7375 21.5159C43.8014 21.5217 43.8656 21.5217 43.9294 21.5159C49.458 21.2191 49.4618 21.2191 49.4541 26.7976C49.4541 29.5502 49.4196 32.2989 49.4004 35.0516L25.8704 35.0554Z" fill="#2CA5E1"/>
<path d="M42.6594 14.6228H49.4042C49.5385 15.2782 49.4541 15.7794 48.6139 15.7794C46.8989 15.7794 45.1609 15.7794 43.4613 15.7794C42.6671 15.7794 42.4868 15.3167 42.6594 14.6228Z" fill="#CEC7DB"/>
<path d="M32.7878 9.66504L32.6957 8.84387H42.5674C42.5674 9.11374 42.5482 9.37975 42.5405 9.64576L32.7878 9.66504Z" fill="#573379"/>
<path d="M63.5729 26.2385C63.5448 29.1685 63.5166 32.0997 63.4885 35.0323H54.5568C54.5338 24.1914 54.507 13.3531 54.4763 2.51735C54.4763 1.54198 54.7218 1.16032 55.7577 1.17574C59.978 1.23357 64.1983 1.10249 68.4186 1.24899C74.1735 1.44561 79.3299 6.00632 79.8939 11.7467C80.174 14.5611 80.1088 17.6105 77.8643 19.9507C76.9781 20.3362 76.5177 21.1997 75.8808 21.8783C75.4549 22.2407 74.6339 22.2638 74.8065 23.1351C74.0392 22.6416 73.5865 23.4242 73.0609 23.6786C70.3484 24.9971 67.4748 25.1205 64.5589 25.028C63.6381 24.974 62.9514 25.0704 63.5729 26.2385ZM63.5499 10.5401C63.5499 11.3111 63.5767 12.0821 63.5767 12.8532C63.5767 17.0939 63.7686 17.2443 68.0924 16.6429C69.7038 16.4193 70.8395 15.5171 71.1617 13.9211C71.4648 12.4368 70.8395 11.2649 69.4161 10.6018C69.3547 10.3666 69.3624 9.98877 69.2204 9.91937C67.4364 9.0558 65.5296 9.28326 63.665 9.4606C63.147 9.4953 63.2545 10.1275 63.5499 10.5401Z" fill="#FC0304"/>
<path d="M63.5729 26.2385C62.9514 25.082 63.642 24.974 64.5512 25.0049C67.4671 25.0974 70.3407 24.974 73.0532 23.6555C73.5788 23.4011 74.02 22.6185 74.7989 23.112C75.1557 24.0719 74.2234 24.0449 73.809 24.3032C71.4226 25.7836 68.7447 26.0689 66.013 26.1113C65.1996 26.1229 64.4055 26.1884 63.5729 26.2385Z" fill="#E8D4DC"/>
<path d="M75.8731 21.859C76.51 21.1921 76.9704 20.3439 77.8566 19.9314C78.0485 21.1843 77.1238 21.7318 76.322 22.3602L75.8731 21.859Z" fill="#CEC7DB"/>
<path d="M75.8732 21.859L76.3297 22.3717C75.9077 22.8035 75.6391 23.5553 74.7951 23.1158C74.6262 22.2407 75.4473 22.2214 75.8732 21.859Z" fill="#E8D4DC"/>
<path d="M42.5674 8.83999H32.6957C32.5077 7.99184 33.0449 7.87618 33.6741 7.87618C36.3213 7.87618 38.9686 7.87618 41.6197 7.87618C42.2681 7.87233 42.7784 7.9957 42.5674 8.83999Z" fill="#FAFAFA"/>
<path d="M69.4199 10.5864C70.8433 11.2495 71.4687 12.4215 71.1656 13.9058C70.8395 15.5018 69.7038 16.4039 68.0963 16.6275C63.7724 17.229 63.5844 17.0632 63.5805 12.8379C63.5805 12.0668 63.5806 11.2958 63.5537 10.5247C65.5066 10.224 67.4747 10.7098 69.4199 10.5864ZM66.4657 15.7061C66.8491 15.7258 67.2333 15.7258 67.6167 15.7061C68.7485 15.5828 69.9916 15.1471 69.9916 13.9713C69.9916 12.7954 68.7293 12.3714 67.5975 12.2866C66.9069 12.2326 66.2125 12.2519 65.5181 12.2557C65.1344 12.2557 64.7507 12.221 64.5512 12.6412C63.7916 14.1872 64.7469 15.7177 66.4657 15.7061Z" fill="#221529"/>
<path d="M69.4199 10.5863C67.4632 10.7097 65.5066 10.2239 63.5499 10.54C63.2698 10.1275 63.1662 9.49528 63.6688 9.44517C65.5334 9.26782 67.4402 9.04037 69.2243 9.90394C69.3662 9.97333 69.3585 10.3512 69.4199 10.5863Z" fill="#E8D4DC"/>
</svg>
