<svg width="21" height="16" viewBox="0 0 21 16" xmlns="http://www.w3.org/2000/svg">
<path d="M6.47203 15.5945C14.2382 15.5945 18.4853 9.7911 18.4853 4.75864C18.4853 4.59382 18.4816 4.42976 18.4733 4.26639C19.2997 3.72704 20.0129 3.05924 20.5795 2.2943C19.8229 2.59767 19.0088 2.80186 18.1548 2.89392C19.0265 2.42245 19.6957 1.67657 20.0115 0.78749C19.1826 1.23097 18.2759 1.5436 17.3304 1.71191C16.5599 0.97165 15.463 0.508667 14.2484 0.508667C11.9167 0.508667 10.0259 2.21419 10.0259 4.31651C10.0259 4.6154 10.063 4.90602 10.1355 5.18488C6.62629 5.02562 3.51461 3.51017 1.43211 1.20586C1.05703 1.78705 0.85975 2.44759 0.860405 3.12002C0.860405 4.44131 1.60578 5.6077 2.73933 6.29011C2.06882 6.27164 1.41304 6.10828 0.82711 5.81377C0.826483 5.82976 0.826483 5.84534 0.826483 5.86242C0.826483 7.70678 2.28185 9.24669 4.21381 9.59563C3.85096 9.68476 3.47654 9.72983 3.10047 9.72963C2.82888 9.72963 2.56419 9.70553 2.30695 9.66099C2.84448 11.1742 4.40317 12.2753 6.25118 12.3061C4.80606 13.3277 2.98565 13.9363 1.00714 13.9363C0.670568 13.9365 0.334273 13.9189 0 13.8835C1.86863 14.9638 4.08745 15.5942 6.47224 15.5942" />
</svg>
