<svg width="18" height="16" viewBox="0 0 18 16" fill="none" xmlns="http://www.w3.org/2000/svg">
<path d="M16.536 5.92015H15.9978V2.69105C15.9978 2.54831 15.9411 2.41142 15.8402 2.31049C15.7392 2.20956 15.6023 2.15286 15.4596 2.15286H2.54317C2.41573 2.15494 2.29169 2.11172 2.19314 2.03091C2.09458 1.95009 2.02791 1.83692 2.00498 1.71155V1.5178C2.02791 1.39243 2.09458 1.27926 2.19314 1.19844C2.29169 1.11763 2.41573 1.07441 2.54317 1.07649H15.2336C15.3763 1.07649 15.5132 1.01979 15.6141 0.91886C15.715 0.817931 15.7717 0.681042 15.7717 0.538307C15.7717 0.395571 15.715 0.258682 15.6141 0.157753C15.5132 0.0568236 15.3763 0.00012207 15.2336 0.00012207H2.54317C2.11496 0.00012207 1.70429 0.170226 1.40151 0.473014C1.09872 0.775802 0.928614 1.18647 0.928614 1.61468C0.924837 1.6792 0.924837 1.7439 0.928614 1.80842V12.8789C0.930727 13.1687 0.989895 13.4552 1.10274 13.7221C1.21559 13.989 1.3799 14.231 1.5863 14.4344C1.7927 14.6378 2.03714 14.7986 2.30567 14.9075C2.57419 15.0164 2.86155 15.0714 3.15132 15.0693H15.4596C15.6023 15.0693 15.7392 15.0126 15.8402 14.9117C15.9411 14.8107 15.9978 14.6738 15.9978 14.5311V11.302H16.536C16.6787 11.302 16.8156 11.2453 16.9165 11.1444C17.0175 11.0434 17.0742 10.9065 17.0742 10.7638V6.45834C17.0742 6.3156 17.0175 6.17871 16.9165 6.07778C16.8156 5.97685 16.6787 5.92015 16.536 5.92015ZM14.9214 13.9929H3.15132C2.85198 13.9958 2.56361 13.8804 2.34893 13.6718C2.13426 13.4631 2.01064 13.1782 2.00498 12.8789V3.16465C2.17968 3.21527 2.36146 3.23709 2.54317 3.22923H14.9214V5.92015H11.1541C10.4404 5.92015 9.756 6.20366 9.25135 6.70831C8.74671 7.21295 8.4632 7.8974 8.4632 8.61108C8.4632 9.32475 8.74671 10.0092 9.25135 10.5138C9.756 11.0185 10.4404 11.302 11.1541 11.302H14.9214V13.9929ZM15.9978 10.2256H11.1541C10.7259 10.2256 10.3152 10.0555 10.0125 9.75274C9.70967 9.44995 9.53957 9.03928 9.53957 8.61108C9.53957 8.18287 9.70967 7.7722 10.0125 7.46941C10.3152 7.16663 10.7259 6.99652 11.1541 6.99652H15.9978V10.2256Z" fill="white"/>
</svg>
